{"title":"The.Martian.2015.WEBRip.480p.x264.AAC-VYTO [P2PDL]","uid":13069729,"size":532829228,"categoryP":"video","categoryS":"movies","magnet":"?xt=urn:btih:c05d9e0d1e43a3130b911a3c7aef2af601f71e9f&amp;dn=The.Martian.2015.WEBRip.480p.x264.AAC-VYTO+%5BP2PDL%5D&amp;tr=udp%3A%2F%2Ftracker.leechers-paradise.org%3A6969&amp;tr=udp%3A%2F%2Fzer0day.ch%3A1337&amp;tr=udp%3A%2F%2Fopen.demonii.com%3A1337&amp;tr=udp%3A%2F%2Ftracker.coppersurfer.tk%3A6969&amp;tr=udp%3A%2F%2Fexodus.desync.com%3A6969","seeders":0,"leechers":3,"uploader":"VYTOP2PDL","files":7,"time":1450782113,"description":"____    ____ ____    ____ .___________.  ______   \r\n     /   /      /   / |           | /  __    \r\n    /   /      /   /  `---|  |----`|  |  |  | \r\n        /     _    _/       |  |     |  |  |  | \r\n       /        |  |         |  |     |  `--'  | \r\n    __/         |__|         |__|      ______/  \r\n                                                  \r\nPresenting Small Encodes with quality for years!\r\n                                                                                                   \r\n                                                                                                   \r\n\r\nThe.Martian.2015.WEBRip.480p.x264.AAC-VYTO\r\n\r\n\r\nGenre: Adventure, Drama, Sci-Fi    \nhttp://www.imdb.com/title/tt3659388/\r\n\r\n\r\nGeneral\r\nFormat                                   : MPEG-4\r\nFile size                                : 502 MiB\r\nDuration                                 : 2h 21mn\r\nOverall bit rate                         : 495 Kbps\r\n\r\nVideo\r\nFormat                                   : AVC\r\nBit rate                                 : 460 Kbps\r\nWidth                                    : 720 pixels\r\nHeight                                   : 304 pixels\r\nDisplay aspect ratio                     : 2.35:1\r\nFrame rate mode                          : Constant\r\nFrame rate                               : 23.976 fps\r\nBit depth                                : 8 bits\r\nStream size                              : 467 MiB (93%)\r\nWriting library                          : x264\r\n\r\nAudio\r\nFormat                                   : AAC\r\nBit rate mode                            : Variable\r\nBit rate                                 : 32.0 Kbps\r\nChannel(s)                               : 2 channels \r\nChannel positions                        : Front: L R \r\nSampling rate                            : 48.0 KHz\r\nStream size                              : 32.4 MiB (6%)\r\nLanguage                                 : English\r\n\r\n\r\nSubtitle                                 : Yes (English)\r\n\r\nScreen shots: (Click to view)\r\n \nhttp://ititli.com/uw \nhttp://ititli.com/u2 \nhttp://ititli.com/u6 \nhttp://ititli.com/u8 \nhttp://ititli.com/ue \nhttp://ititli.com/uj \nhttp://ititli.com/uk \nhttp://ititli.com/uo \nhttp://ititli.com/uG \nhttp://ititli.com/uH \nhttp://ititli.com/uM \nhttp://ititli.com/uU\r\n\r\n----------------------------------------------------------------------------------------------------\r\n\r\n\r\nEncoder Notes: Looking For Early Access To Anything You Can Provide WEBDL, DVDScr, DVDR, BluRay,\r\nDirect Audio, Music Releases and Seedboxes. If You Got anything to offer please contact us.\r\n\r\nSupport us by donating BC - 1FgwdzPsd1y25Gea8wP1qni35uGCtmkRCD\r\n\r\nSend some love!\r\nFind us and join us!","torrent":{"xt":"urn:btih:c05d9e0d1e43a3130b911a3c7aef2af601f71e9f","amp;dn":"The.Martian.2015.WEBRip.480p.x264.AAC-VYTO+%5BP2PDL%5D","amp;tr":["udp%3A%2F%2Ftracker.leechers-paradise.org%3A6969","udp%3A%2F%2Fzer0day.ch%3A1337","udp%3A%2F%2Fopen.demonii.com%3A1337","udp%3A%2F%2Ftracker.coppersurfer.tk%3A6969","udp%3A%2F%2Fexodus.desync.com%3A6969"],"infoHash":"c05d9e0d1e43a3130b911a3c7aef2af601f71e9f","infoHashBuffer":{"type":"Buffer","data":[192,93,158,13,30,67,163,19,11,145,26,60,122,239,42,246,1,247,30,159]},"announce":[],"urlList":[]}}